REM DIRINDEX 1\2,1\3,1\4
REM DIRNAME folder01,folder02,folder03,folder04
TITLE ""
FILE "105 105_TOEFL_3900.mp3" MP3
  TRACK 01 AUDIO
    TITLE "2:cjc151_4576"
    INDEX 01 00:00:00
  TRACK 02 AUDIO
    TITLE "0:"
    INDEX 01 00:01:21
  TRACK 03 AUDIO
    TITLE "3:cjc151_4577"
    INDEX 01 00:03:00
  TRACK 04 AUDIO
    TITLE "0:"
    INDEX 01 00:06:24
  TRACK 05 AUDIO
    TITLE "2:cjc151_4578"
    INDEX 01 00:08:09
  TRACK 06 AUDIO
    TITLE "0:"
    INDEX 01 00:09:02
  TRACK 07 AUDIO
    TITLE "3:cjc151_4579"
    INDEX 01 00:10:55
  TRACK 08 AUDIO
    TITLE "0:"
    INDEX 01 00:14:11
  TRACK 09 AUDIO
    TITLE "2:cjc151_4580"
    INDEX 01 00:15:66
  TRACK 10 AUDIO
    TITLE "0:"
    INDEX 01 00:16:65
  TRACK 11 AUDIO
    TITLE "3:cjc151_4581"
    INDEX 01 00:18:39
  TRACK 12 AUDIO
    TITLE "0:"
    INDEX 01 00:21:41
  TRACK 13 AUDIO
    TITLE "2:cjc151_4582"
    INDEX 01 00:23:20
  TRACK 14 AUDIO
    TITLE "0:"
    INDEX 01 00:24:33
  TRACK 15 AUDIO
    TITLE "3:cjc151_4583"
    INDEX 01 00:26:13
  TRACK 16 AUDIO
    TITLE "0:"
    INDEX 01 00:29:33
  TRACK 17 AUDIO
    TITLE "2:cjc151_4584"
    INDEX 01 00:31:08
  TRACK 18 AUDIO
    TITLE "0:"
    INDEX 01 00:32:15
  TRACK 19 AUDIO
    TITLE "3:cjc151_4585"
    INDEX 01 00:34:00
  TRACK 20 AUDIO
    TITLE "0:"
    INDEX 01 00:38:00
  TRACK 21 AUDIO
    TITLE "2:cjc151_4586"
    INDEX 01 00:39:54
  TRACK 22 AUDIO
    TITLE "0:"
    INDEX 01 00:40:64
  TRACK 23 AUDIO
    TITLE "3:cjc151_4587"
    INDEX 01 00:42:41
  TRACK 24 AUDIO
    TITLE "0:"
    INDEX 01 00:45:71
  TRACK 25 AUDIO
    TITLE "2:cjc151_4588"
    INDEX 01 00:47:56
  TRACK 26 AUDIO
    TITLE "0:"
    INDEX 01 00:48:53
  TRACK 27 AUDIO
    TITLE "3:cjc151_4589"
    INDEX 01 00:50:33
  TRACK 28 AUDIO
    TITLE "0:"
    INDEX 01 00:53:47
  TRACK 29 AUDIO
    TITLE "2:cjc151_4590"
    INDEX 01 00:55:26
  TRACK 30 AUDIO
    TITLE "0:"
    INDEX 01 00:56:31
  TRACK 31 AUDIO
    TITLE "3:cjc151_4591"
    INDEX 01 00:58:11
  TRACK 32 AUDIO
    TITLE "0:"
    INDEX 01 01:02:26
  TRACK 33 AUDIO
    TITLE "2:cjc151_4592"
    INDEX 01 01:04:05
  TRACK 34 AUDIO
    TITLE "0:"
    INDEX 01 01:05:32
  TRACK 35 AUDIO
    TITLE "3:cjc151_4593"
    INDEX 01 01:07:10
  TRACK 36 AUDIO
    TITLE "0:"
    INDEX 01 01:10:39
  TRACK 37 AUDIO
    TITLE "2:cjc151_4594"
    INDEX 01 01:12:17
  TRACK 38 AUDIO
    TITLE "0:"
    INDEX 01 01:13:26
  TRACK 39 AUDIO
    TITLE "3:cjc151_4595"
    INDEX 01 01:15:05
  TRACK 40 AUDIO
    TITLE "0:"
    INDEX 01 01:18:53
  TRACK 41 AUDIO
    TITLE "2:cjc151_4596"
    INDEX 01 01:20:34
  TRACK 42 AUDIO
    TITLE "0:"
    INDEX 01 01:21:39
  TRACK 43 AUDIO
    TITLE "3:cjc151_4597"
    INDEX 01 01:23:11
  TRACK 44 AUDIO
    TITLE "0:"
    INDEX 01 01:27:26
  TRACK 45 AUDIO
    TITLE "2:cjc151_4598"
    INDEX 01 01:29:05
  TRACK 46 AUDIO
    TITLE "0:"
    INDEX 01 01:30:17
  TRACK 47 AUDIO
    TITLE "3:cjc151_4599"
    INDEX 01 01:31:71
  TRACK 48 AUDIO
    TITLE "0:"
    INDEX 01 01:35:22
  TRACK 49 AUDIO
    TITLE "2:cjc151_4600"
    INDEX 01 01:37:01
  TRACK 50 AUDIO
    TITLE "0:"
    INDEX 01 01:38:34
  TRACK 51 AUDIO
    TITLE "3:cjc151_4601"
    INDEX 01 01:40:13
  TRACK 52 AUDIO
    TITLE "0:"
    INDEX 01 01:44:52
  TRACK 53 AUDIO
    TITLE "2:cjc151_4602"
    INDEX 01 01:46:29
  TRACK 54 AUDIO
    TITLE "0:"
    INDEX 01 01:49:00
  TRACK 55 AUDIO
    TITLE "3:cjc151_4603"
    INDEX 01 01:50:58
  TRACK 56 AUDIO
    TITLE "0:"
    INDEX 01 01:54:35
  TRACK 57 AUDIO
    TITLE "2:cjc151_4604"
    INDEX 01 01:56:14
  TRACK 58 AUDIO
    TITLE "0:"
    INDEX 01 01:57:23
  TRACK 59 AUDIO
    TITLE "3:cjc151_4605"
    INDEX 01 01:59:03
  TRACK 60 AUDIO
    TITLE "0:"
    INDEX 01 02:03:51
  TRACK 61 AUDIO
    TITLE "2:cjc151_4606"
    INDEX 01 02:05:33
  TRACK 62 AUDIO
    TITLE "0:"
    INDEX 01 02:06:42
  TRACK 63 AUDIO
    TITLE "3:cjc151_4607"
    INDEX 01 02:08:17
  TRACK 64 AUDIO
    TITLE "0:"
    INDEX 01 02:12:36
  TRACK 65 AUDIO
    TITLE "2:cjc151_4608"
    INDEX 01 02:14:16
  TRACK 66 AUDIO
    TITLE "0:"
    INDEX 01 02:15:15
  TRACK 67 AUDIO
    TITLE "3:cjc151_4609"
    INDEX 01 02:16:64
  TRACK 68 AUDIO
    TITLE "0:"
    INDEX 01 02:19:60
  TRACK 69 AUDIO
    TITLE "2:cjc151_4610"
    INDEX 01 02:21:45
  TRACK 70 AUDIO
    TITLE "0:"
    INDEX 01 02:22:53
  TRACK 71 AUDIO
    TITLE "3:cjc151_4611"
    INDEX 01 02:24:32
  TRACK 72 AUDIO
    TITLE "0:"
    INDEX 01 02:26:66
  TRACK 73 AUDIO
    TITLE "2:cjc151_4612"
    INDEX 01 02:28:45
  TRACK 74 AUDIO
    TITLE "0:"
    INDEX 01 02:29:49
  TRACK 75 AUDIO
    TITLE "3:cjc151_4613"
    INDEX 01 02:31:20
  TRACK 76 AUDIO
    TITLE "0:"
    INDEX 01 02:34:17
  TRACK 77 AUDIO
    TITLE "2:cjc151_4614"
    INDEX 01 02:35:71
  TRACK 78 AUDIO
    TITLE "0:"
    INDEX 01 02:36:70
  TRACK 79 AUDIO
    TITLE "3:cjc151_4615"
    INDEX 01 02:38:52
  TRACK 80 AUDIO
    TITLE "0:"
    INDEX 01 02:41:26
  TRACK 81 AUDIO
    TITLE "2:cjc151_4616"
    INDEX 01 02:43:08
  TRACK 82 AUDIO
    TITLE "0:"
    INDEX 01 02:44:03
  TRACK 83 AUDIO
    TITLE "3:cjc151_4617"
    INDEX 01 02:45:57
  TRACK 84 AUDIO
    TITLE "0:"
    INDEX 01 02:48:46
  TRACK 85 AUDIO
    TITLE "2:cjc151_4618"
    INDEX 01 02:50:25
  TRACK 86 AUDIO
    TITLE "0:"
    INDEX 01 02:51:25
  TRACK 87 AUDIO
    TITLE "3:cjc151_4619"
    INDEX 01 02:53:02
  TRACK 88 AUDIO
    TITLE "0:"
    INDEX 01 02:57:25
